<?xml version="1.0" encoding="utf-8"?>
<!-- Generator: Adobe Illustrator 22.1.0, SVG Export Plug-In . SVG Version: 6.00 Build 0)  -->
<svg version="1.1" id="Layer_1" xmlns="http://www.w3.org/2000/svg" xmlns:xlink="http://www.w3.org/1999/xlink" x="0px" y="0px"
	viewBox="0 0 250 250" style="enable-background:new 0 0 250 250;" xml:space="preserve">
	<style type="text/css">
		.st0{fill:none;stroke:#000000;stroke-width:4;stroke-miterlimit:10;}
		.st1{fill:#FFFFFF;stroke:#000000;stroke-width:2;stroke-miterlimit:10;}
		.st2{fill:none;stroke:#000000;stroke-width:2;stroke-miterlimit:10;}
		.st3{fill:none;stroke:#000000;stroke-linecap:round;stroke-linejoin:round;}

		@keyframes fadeIn {
		0% {opacity: 0;}
		100% {opacity: 1;}
		}

		@keyframes fadeIn {
		0% {opacity: 0;}
		100% {opacity: 1;}
		}

		.stem {
		animation: fadeIn 4s forwards;
		}
		.leaves1 {animation: fadeIn 6s forwards;}
		.leaves2 {animation: fadeIn 8s forwards;}
		.leaves3 {animation: fadeIn 10s forwards;}
		.leaves4 {animation: fadeIn 12s forwards;}
	</style>
	<g id="Stem" class="stem">
		<path class="st0" d="M125,170c-4.1,4.1-9,10.4-9,18c0.1,12.7,13.6,17.8,16,32c0.9,5.6,0.4,13.9-7,25"/>
		<circle class="st1" cx="125" cy="157" r="12.5"/>
		<path class="st2" d="M140,156c0,0.3,0,0.7,0,1c0,4.9-2.4,9.3-6,12c-2.5,1.9-5.6,3-9,3c-8.3,0-15-6.7-15-15s6.7-15,15-15
			c0.7,0,1.3,0,2,0.1c2.8,0.4,5.3,1.5,7.4,3.1c0.6,0.5,1.2,1.1,1.7,1.6c1.6,1.7,2.8,3.8,3.4,6.2C139.7,154,139.9,155,140,156z"/>
			<path class="st2" d="M124,169.5c6.6,0,12-5.4,12-12c0-5.3-4.3-9.6-9.6-9.6c-4.2,0-7.7,3.4-7.7,7.7c0,3.4,2.8,6.1,6.1,6.1
				c2.7,0,4.9-2.2,4.9-4.9c0-2.2-1.8-3.9-3.9-3.9c-1.7,0-3.1,1.4-3.1,3.1c0,1.4,1.1,2.5,2.5,2.5c1.1,0,2-0.9,2-2
				c0-0.9-0.7-1.6-1.6-1.6"/>
			</g>
			<g id="_x31_Leaves" class="leaves1">
				<path d="M25,125c-1,3.2-1.9,7.8-1,13c1.4,8.2,6.2,12.6,9,17c3.8,6.1,6.2,16.5,0,35c12.3-19.2,22.2-23,29-23c10.5,0,15.7,9.1,29,10
					c10.6,0.7,19.4-4.1,25-8c-3.6-2.7-6-7.1-6-12c0-0.3,0-0.7,0-1h0c-9.6,4.1-15.9,3.4-20,2c-4.8-1.7-6.9-4.6-15-11
					c-5.7-4.6-10.7-7.9-14-10c1,1.7,1.7,3.1,2.4,4.5c3.5,7.4,2.7,10.2,1.6,11.5c-3.7,4.3-18.6-0.6-28-9c-0.5-0.4-0.9-0.8-1.3-1.2
					C29.3,136.6,26.4,129.4,25,125z"/>
					<path d="M225,125c1,3.2,1.9,7.8,1,13c-1.4,8.2-6.2,12.6-9,17c-3.8,6.1-6.2,16.5,0,35c-12.3-19.2-22.2-23-29-23
						c-10.5,0-15.7,9.1-29,10c-10.6,0.7-19.4-4.1-25-8c3.6-2.7,6-7.1,6-12c0-0.3,0-0.7,0-1h0c9.6,4.1,15.9,3.4,20,2
						c4.8-1.7,6.9-4.6,15-11c5.7-4.6,10.7-7.9,14-10c-0.9,1.7-1.7,3.1-2.4,4.5c-3.5,7.4-2.7,10.2-1.6,11.5c3.7,4.3,18.6-0.6,28-9
						c0.5-0.4,0.9-0.8,1.3-1.2C220.7,136.6,223.6,129.4,225,125z"/>
					</g>
					<g id="_x32_Leaves" class="leaves2">
						<path d="M38,87c-2.1,3.4-4.6,8.8-4,15c0.8,9.5,8.2,13,9,22c0.4,3.9-0.4,9.6-6,17c0.3,0.2,0.6,0.4,0.9,0.6
							c11.7,7.9,21.8,11.2,24.1,8.4c1.1-1.3,0.7-4-1-7.5c-2-4.3-5.8-9.8-11-15.5c10.4,5.1,18,10.3,23,14c9.8,7.3,14.9,13.1,24,14
							c5.5,0.6,10.1-0.9,13-2.1l0.5,0.2c0.6-2.3,1.8-4.4,3.4-6.2c-4.7-3.4-10.1-8.8-10.9-15.9c-0.8-6.8,3.2-10.3,2-16
							c-0.7-3.3-3.2-7.4-10.9-11.3c-1.8-0.9-3.8-1.8-6.1-2.7c-2,19-4.7,23.8-7,24c-5,0.4-14.1-20.7-11-41c0.5-3.4,1.3-6.5,2.3-9.3
							c2.2-6.3,5.2-11.2,7.7-14.7c-4.3,1.4-10,4-15,9c-13.9,13.9-10.9,35.3-16,36C46.9,105.3,43.5,102,38,87z"/>
							<path d="M212,87c2.1,3.4,4.6,8.8,4,15c-0.9,9.5-8.2,13-9,22c-0.4,3.9,0.4,9.6,6,17c-0.3,0.2-0.6,0.4-0.9,0.6
								c-11.7,7.9-21.8,11.2-24.1,8.4c-1.1-1.3-0.7-4,1-7.5c2-4.3,5.8-9.8,11-15.5c-10.4,5.1-18,10.3-23,14c-9.8,7.3-14.9,13.1-24,14
								c-5.5,0.6-10.1-0.9-13-2.1l-0.5,0.2c-0.6-2.3-1.8-4.4-3.4-6.2c4.6-3.4,10.1-8.8,10.9-15.9c0.8-6.8-3.2-10.3-2-16
								c0.7-3.3,3.2-7.4,10.9-11.3c1.8-0.9,3.8-1.8,6.1-2.7c2,19,4.7,23.8,7,24c5,0.4,14.1-20.7,11-41c-0.5-3.4-1.3-6.5-2.3-9.3
								c-2.2-6.3-5.2-11.2-7.7-14.7c4.3,1.4,10,4,15,9c13.9,13.9,10.9,35.3,16,36C203.1,105.3,206.5,102,212,87z"/>
							</g>
							<g id="_x33_Leaves" class="leaves3">
								<path d="M75,75c-3.9,14.1-2.7,25-1,32c0.3,1.3,3.2,13.2,6,13c2.7-0.2,4.1-11.4,5-24c3.5,1.7,6.9,3.5,10.4,5.2
									c1.2,0.6,2.4,1.2,3.6,1.8c2.3-3.7,5.8-8.4,11-13c4.7-4.3,9.4-7.1,13-9c-2.2-2.5-7.9-9.9-9-21c-1.2-11.6,3.3-20.2,5-23
									c-6,5.2-10,7.2-12,6c-3.2-2-1.2-12.3,6-31c-3.3,1-12.1,4.2-19,13c-8.2,10.5-8.1,21.8-8,25c9.6,3.7,12.9,14.6,9,21
									C91.6,76.6,82.7,79.2,75,75z"/>
									<path d="M175,75c3.9,14.1,2.7,25,1,32c-0.3,1.3-3.2,13.2-6,13c-2.7-0.2-4.1-11.4-5-24c-3.5,1.7-6.9,3.5-10.4,5.2
										c-1.2,0.6-2.4,1.2-3.6,1.8c-2.3-3.7-5.8-8.4-11-13c-4.7-4.3-9.4-7.1-13-9c2.2-2.5,7.9-9.9,9-21c1.2-11.6-3.3-20.2-5-23
										c6,5.2,10,7.2,12,6c3.2-2,1.2-12.3-6-31c3.3,1,12.1,4.2,19,13c8.2,10.5,8.1,21.8,8,25c-9.6,3.7-12.9,14.6-9,21
										C158.4,76.6,167.3,79.2,175,75z"/>
									</g>
									<g id="_x34_Leaves" class="leaves4">
										<path d="M101,105c2.1,1.6,4.7,4.2,6,8c2.4,7.1-2.2,11.9-1,19c0.6,3.6,2.8,8.3,9.6,13.3c2.1-1.7,4.6-2.8,7.4-3.1l0-0.1
											c-0.5-0.3-10.7-6.1-11-17c-0.2-6,2.8-10.4,4-12c-0.3-3.8-0.2-9,1-15c1-4.9,2.6-8.9,4-12c-3.1,1.7-7,4.3-11,8
											C105.8,97.9,102.9,101.9,101,105z"/>
											<path d="M149,105c-2.1,1.6-4.7,4.2-6,8c-2.4,7.1,2.2,11.9,1,19c-0.6,3.6-2.8,8.3-9.6,13.3c-2.1-1.7-4.6-2.8-7.4-3.1l0-0.1
												c0.5-0.3,10.7-6.1,11-17c0.1-6-2.8-10.4-4-12c0.3-3.8,0.2-9-1-15c-1-4.9-2.6-8.9-4-12c3.1,1.7,7,4.3,11,8
												C144.2,97.9,147.1,101.9,149,105z"/>
											</g>
											<g id="_x31_Stroke">
												<path class="st2" d="M116,169c-5.6,3.9-14.4,8.7-25,8c-13.3-0.9-18.5-10-29-10c-6.8,0-16.7,3.8-29,23c6.2-18.5,3.8-28.9,0-35
													c-2.8-4.4-7.6-8.8-9-17c-0.9-5.2,0-9.8,1-13c1.4,4.4,4.3,11.6,10.7,17.8c0.4,0.4,0.9,0.8,1.3,1.2c9.4,8.4,24.3,13.3,28,9
													c1.1-1.3,1.9-4.1-1.6-11.5c-0.6-1.4-1.4-2.8-2.4-4.5c3.3,2.1,8.3,5.4,14,10c8.1,6.4,10.2,9.3,15,11c4.1,1.4,10.4,2.1,20-2"/>
													<path class="st2" d="M134,169c5.6,3.9,14.4,8.7,25,8c13.3-0.9,18.5-10,29-10c6.8,0,16.7,3.8,29,23c-6.2-18.5-3.8-28.9,0-35
														c2.8-4.4,7.6-8.8,9-17c0.9-5.2,0-9.8-1-13c-1.4,4.4-4.3,11.6-10.7,17.8c-0.4,0.4-0.9,0.8-1.3,1.2c-9.4,8.4-24.3,13.3-28,9
														c-1.1-1.3-1.9-4.1,1.6-11.5c0.6-1.4,1.4-2.8,2.4-4.5c-3.3,2.1-8.3,5.4-14,10c-8.1,6.4-10.2,9.3-15,11c-4.1,1.4-10.4,2.1-20-2"/>
													</g>
													<g id="_x32_Stroke">
														<path class="st2" d="M114,147C114,147,113.9,146.9,114,147c-4.8-3.5-10.2-8.8-11-16c-0.8-6.8,3.2-10.3,2-16
															c-0.7-3.3-3.2-7.4-10.9-11.3c-1.8-0.9-3.8-1.8-6.1-2.7c-2,19-4.7,23.8-7,24c-5,0.4-14.1-20.7-11-41c0.5-3.4,1.3-6.5,2.3-9.3
															c2.2-6.3,5.2-11.2,7.7-14.7c-4.3,1.4-10,4-15,9c-13.9,13.9-10.9,35.3-16,36c-2.1,0.3-5.5-3-11-18c-2.1,3.4-4.6,8.8-4,15
															c0.8,9.5,8.2,13,9,22c0.4,3.9-0.4,9.6-6,17c0.3,0.2,0.6,0.4,0.9,0.6c11.7,7.9,21.8,11.2,24.1,8.4c1.1-1.3,0.7-4-1-7.5
															c-2-4.3-5.8-9.8-11-15.5c10.4,5.1,18,10.3,23,14c9.8,7.3,14.9,13.1,24,14c5.5,0.6,10.1-0.9,13-2.1"/>
															<path class="st2" d="M136,147c0,0,0.1-0.1,0.1-0.1c4.6-3.4,10.1-8.8,10.9-15.9c0.8-6.8-3.2-10.3-2-16c0.7-3.3,3.2-7.4,10.9-11.3
																c1.8-0.9,3.8-1.8,6.1-2.7c2,19,4.7,23.8,7,24c5,0.4,14.1-20.7,11-41c-0.5-3.4-1.3-6.5-2.3-9.3c-2.2-6.3-5.2-11.2-7.7-14.7
																c4.3,1.4,10,4,15,9c13.9,13.9,10.9,35.3,16,36c2.1,0.3,5.5-3,11-18c2.1,3.4,4.6,8.8,4,15c-0.9,9.5-8.2,13-9,22
																c-0.4,3.9,0.4,9.6,6,17c-0.3,0.2-0.6,0.4-0.9,0.6c-11.7,7.9-21.8,11.2-24.1,8.4c-1.1-1.3-0.7-4,1-7.5c2-4.3,5.8-9.8,11-15.5
																c-10.4,5.1-18,10.3-23,14c-9.8,7.3-14.9,13.1-24,14c-5.5,0.6-10.1-0.9-13-2.1"/>
															</g>
															<g id="_x33_Stroke">
																<path class="st2" d="M75,75c7.7,4.2,16.6,1.6,20-4c3.9-6.4,0.6-17.3-9-21c-0.1-3.2-0.2-14.5,8-25c6.9-8.8,15.7-12,19-13
																	c-7.2,18.7-9.2,29-6,31c2,1.2,6-0.8,12-6c-1.7,2.8-6.2,11.4-5,23c1.1,11.1,6.8,18.5,9,21c-3.6,1.9-8.3,4.8-13,9
																	c-5.2,4.6-8.7,9.3-11,13c-1.2-0.6-2.4-1.2-3.6-1.8c-3.5-1.7-6.9-3.5-10.4-5.2c-0.9,12.6-2.3,23.8-5,24c-2.8,0.2-5.7-11.7-6-13
																	C72.3,100,71.1,89.1,75,75z"/>
																	<path class="st2" d="M175,75c-7.7,4.2-16.6,1.6-20-4c-3.9-6.4-0.6-17.3,9-21c0.1-3.2,0.2-14.5-8-25c-6.9-8.8-15.7-12-19-13
																		c7.2,18.7,9.2,29,6,31c-2,1.2-6-0.8-12-6c1.7,2.8,6.2,11.4,5,23c-1.1,11.1-6.8,18.5-9,21c3.6,1.9,8.3,4.8,13,9
																		c5.2,4.6,8.7,9.3,11,13c1.2-0.6,2.4-1.2,3.6-1.8c3.5-1.7,6.9-3.5,10.4-5.2c0.9,12.6,2.3,23.8,5,24c2.8,0.2,5.7-11.7,6-13
																		C177.7,100,178.9,89.1,175,75z"/>
																	</g>
																	<g id="_x34_LStroke">
																		<path class="st2" d="M123,142c-0.5-0.3-10.7-6.1-11-17c-0.2-6,2.8-10.4,4-12c-0.3-3.8-0.2-9,1-15c1-4.9,2.6-8.9,4-12
																			c-3.1,1.7-7,4.3-11,8c-4.2,3.9-7.1,7.9-9,11c2.1,1.6,4.7,4.2,6,8c2.4,7.1-2.2,11.9-1,19c0.6,3.6,2.8,8.3,9.6,13.3"/>
																			<path class="st2" d="M127,142c0.5-0.3,10.7-6.1,11-17c0.1-6-2.8-10.4-4-12c0.3-3.8,0.2-9-1-15c-1-4.9-2.6-8.9-4-12
																				c3.1,1.7,7,4.3,11,8c4.2,3.9,7.1,7.9,9,11c-2.1,1.6-4.7,4.2-6,8c-2.4,7.1,2.2,11.9,1,19c-0.6,3.6-2.8,8.3-9.6,13.3"/>
																			</g>
																			<path id="CLeaf" d="M125,106c0.4,0.3,9.9,8.4,8,20c-1.3,7.6-6.6,11.9-8,13c-1.4-1.1-6.7-5.4-8-13C115.1,114.4,124.6,106.3,125,106z"
																				/>
																				<path id="CStroke" class="st2" d="M125,139c-1.4-1.1-6.7-5.4-8-13c-1.9-11.6,7.6-19.7,8-20c0.4,0.3,9.9,8.4,8,20
																					C131.7,133.6,126.4,137.9,125,139z"/>
																					<path id="ULeaf" d="M130,98c0.6,3.7,0.4,6.8,0,9c-1.7-2-3.3-4-5-6c-1.7,2-3.3,4-5,6c-0.4-2.2-0.6-5.3,0-9c0.9-5.7,3.4-9.8,5-12
																						C126.6,88.2,129.1,92.3,130,98z"/>
																						<path id="UStroke" class="st2" d="M125,86c-1.6,2.2-4.1,6.3-5,12c-0.6,3.7-0.4,6.8,0,9c1.7-2,3.3-4,5-6c1.7,2,3.3,4,5,6
																							c0.4-2.2,0.6-5.3,0-9C129.1,92.3,126.6,88.2,125,86z"/>
																							<path id="TLeaf" d="M132.5,63.5c-0.3,1.9-0.9,4.3-2,7c-1.7,3.9-3.8,6.7-5.5,8.5c-1.7-1.8-3.8-4.6-5.5-8.5c-1.1-2.7-1.7-5.1-2-7
																								c1.8-0.2,3.4-1.4,4-3c0.7-1.9,0.2-4.1-1.5-5.5c0.3-0.8,1-2.3,2.5-3.5c0.9-0.8,1.8-1.2,2.5-1.5c0.7,0.3,1.6,0.7,2.5,1.5
																								c1.5,1.3,2.2,2.7,2.5,3.5c-1.6,1.4-2.2,3.6-1.5,5.5C129.1,62.1,130.7,63.3,132.5,63.5z"/>
																								<path id="TStroke" class="st3" d="M125,79c-1.7-1.8-3.8-4.6-5.5-8.5c-1.1-2.7-1.7-5.1-2-7c1.8-0.2,3.4-1.4,4-3
																									c0.7-1.9,0.2-4.1-1.5-5.5c0.3-0.8,1-2.3,2.5-3.5c0.9-0.8,1.8-1.2,2.5-1.5c0.7,0.3,1.6,0.7,2.5,1.5c1.5,1.3,2.2,2.7,2.5,3.5
																									c-1.6,1.4-2.2,3.6-1.5,5.5c0.6,1.6,2.2,2.8,4,3c-0.3,1.9-0.9,4.3-2,7C128.8,74.4,126.7,77.2,125,79z"/>
																								</svg>
